<svg width="373" height="72" viewBox="0 0 373 72" fill="none" xmlns="http://www.w3.org/2000/svg">
<path d="M116.064 63.436C113.184 63.436 110.256 62.164 107.28 59.62L106.704 62.5H96.336L106.128 16.708L116.784 15.268L108.144 55.66C109.488 56.62 110.856 57.1 112.248 57.1C114.984 57.1 117.384 55.516 119.448 52.348C121.56 49.18 123.192 45.148 124.344 40.252C125.496 35.356 126.072 30.412 126.072 25.42C126.072 20.716 125.136 17.284 123.264 15.124C121.44 12.916 118.872 11.812 115.56 11.812C111.96 11.812 108.72 12.532 105.84 13.972C103.008 15.364 100.776 17.38 99.144 20.02C97.512 22.66 96.696 25.756 96.696 29.308C96.696 31.084 96.864 32.332 97.2 33.052C97.536 33.724 97.704 34.108 97.704 34.204C95.208 34.204 93.288 33.676 91.944 32.62C90.648 31.564 90 29.86 90 27.508C90 24.244 91.224 21.148 93.672 18.22C96.12 15.292 99.384 12.94 103.464 11.164C107.592 9.388 112.032 8.5 116.784 8.5C123.36 8.5 128.208 10.444 131.328 14.332C134.448 18.22 136.008 23.188 136.008 29.236C136.008 34.708 135.072 40.108 133.2 45.436C131.376 50.716 128.928 55.036 125.856 58.396C122.784 61.756 119.52 63.436 116.064 63.436Z" fill="#050F0A"/>
<path d="M149.334 22.612C147.75 22.612 146.406 22.06 145.302 20.956C144.198 19.852 143.646 18.508 143.646 16.924C143.646 15.34 144.198 13.996 145.302 12.892C146.406 11.74 147.75 11.164 149.334 11.164C150.918 11.164 152.262 11.74 153.366 12.892C154.518 13.996 155.094 15.34 155.094 16.924C155.094 18.508 154.518 19.852 153.366 20.956C152.262 22.06 150.918 22.612 149.334 22.612ZM144.438 62.932C142.134 62.932 140.262 62.212 138.822 60.772C137.43 59.332 136.734 57.172 136.734 54.292C136.734 53.092 136.926 51.532 137.31 49.612L142.206 26.5H152.574L147.39 50.98C147.198 51.7 147.102 52.468 147.102 53.284C147.102 54.244 147.318 54.94 147.75 55.372C148.23 55.756 148.998 55.948 150.054 55.948C151.446 55.948 152.742 55.372 153.942 54.22C155.142 53.02 156.006 51.484 156.534 49.612H159.558C157.782 54.796 155.502 58.324 152.718 60.196C149.934 62.02 147.174 62.932 144.438 62.932Z" fill="#050F0A"/>
<path d="M166.801 62.932C163.249 62.932 160.489 62.02 158.521 60.196C156.553 58.324 155.57 55.42 155.57 51.484C155.57 48.172 156.217 44.524 157.513 40.54C158.809 36.556 160.922 33.124 163.85 30.244C166.778 27.316 170.497 25.852 175.009 25.852C180.289 25.852 182.93 28.156 182.93 32.764C182.93 35.452 182.162 37.924 180.626 40.18C179.09 42.436 177.05 44.26 174.506 45.652C171.962 46.996 169.249 47.764 166.369 47.956C166.273 49.396 166.226 50.356 166.226 50.836C166.226 53.188 166.634 54.796 167.45 55.66C168.266 56.476 169.586 56.884 171.41 56.884C174.001 56.884 176.209 56.284 178.034 55.084C179.906 53.884 181.946 52.06 184.154 49.612H186.602C181.274 58.492 174.673 62.932 166.801 62.932ZM166.946 44.5C168.722 44.404 170.401 43.78 171.985 42.628C173.617 41.476 174.914 40.012 175.874 38.236C176.882 36.46 177.385 34.588 177.385 32.62C177.385 30.652 176.786 29.668 175.586 29.668C173.858 29.668 172.154 31.18 170.474 34.204C168.842 37.228 167.666 40.66 166.946 44.5Z" fill="#050F0A"/>
<path d="M190.906 62.932C188.458 62.932 186.634 62.188 185.434 60.7C184.282 59.212 183.706 57.244 183.706 54.796C183.706 53.548 183.85 52.276 184.138 50.98L188.746 29.38H186.37L186.946 26.5H189.322L191.482 16.564L202.138 15.124C201.706 16.948 201.466 18.028 201.418 18.364C201.082 19.708 200.506 22.42 199.69 26.5H211.17L210.594 29.38H199.114L194.506 50.98C194.266 52.036 194.146 52.876 194.146 53.5C194.146 55.228 194.986 56.092 196.666 56.092C197.53 56.092 198.154 56.02 198.538 55.876C197.578 58.66 196.45 60.532 195.154 61.492C193.858 62.452 192.442 62.932 190.906 62.932Z" fill="#050F0A"/>
<path d="M223.234 14.836H222.37C218.098 14.836 214.762 15.916 212.362 18.076C210.01 20.188 208.834 23.956 208.834 29.38C208.834 31.156 209.002 32.404 209.338 33.124C209.674 33.796 209.842 34.18 209.842 34.276C207.25 34.276 205.306 33.748 204.01 32.692C202.762 31.588 202.138 29.788 202.138 27.292C202.138 23.884 202.978 20.788 204.658 18.004C206.338 15.172 209.002 12.892 212.65 11.164C216.346 9.436 221.026 8.572 226.69 8.572C229.858 8.572 233.266 8.86 236.914 9.436C239.986 9.964 242.722 10.228 245.122 10.228C248.194 10.228 250.978 9.724 253.474 8.716C253.378 11.836 252.586 14.14 251.098 15.628C249.61 17.116 247.402 17.86 244.474 17.86C242.938 17.86 241.402 17.74 239.866 17.5C238.33 17.26 236.146 16.852 233.314 16.276L223.378 62.5H213.01L223.234 14.836Z" fill="#050F0A"/>
<path d="M245.01 62.932C242.274 62.932 239.994 61.996 238.17 60.124C236.346 58.252 235.434 55.324 235.434 51.34C235.434 47.788 236.13 44.068 237.522 40.18C238.962 36.244 241.074 32.932 243.858 30.244C246.69 27.508 250.05 26.14 253.938 26.14C255.906 26.14 257.37 26.476 258.33 27.148C259.29 27.82 259.77 28.708 259.77 29.812V30.316L260.562 26.5H270.93L265.746 50.98C265.554 51.7 265.458 52.468 265.458 53.284C265.458 55.348 266.442 56.38 268.41 56.38C269.754 56.38 270.906 55.756 271.866 54.508C272.874 53.26 273.666 51.628 274.242 49.612H277.266C275.49 54.796 273.282 58.324 270.642 60.196C268.05 62.02 265.434 62.932 262.794 62.932C260.778 62.932 259.146 62.38 257.898 61.276C256.698 60.124 255.978 58.468 255.738 56.308C254.346 58.276 252.786 59.884 251.058 61.132C249.378 62.332 247.362 62.932 245.01 62.932ZM249.69 55.948C250.89 55.948 252.066 55.396 253.218 54.292C254.418 53.14 255.234 51.58 255.666 49.612L259.122 33.34C259.122 32.716 258.882 32.116 258.402 31.54C257.922 30.916 257.178 30.604 256.17 30.604C254.25 30.604 252.522 31.732 250.986 33.988C249.45 36.196 248.25 38.884 247.386 42.052C246.522 45.172 246.09 47.932 246.09 50.332C246.09 52.732 246.426 54.268 247.098 54.94C247.818 55.612 248.682 55.948 249.69 55.948Z" fill="#050F0A"/>
<path d="M286.293 22.612C284.709 22.612 283.365 22.06 282.261 20.956C281.157 19.852 280.605 18.508 280.605 16.924C280.605 15.34 281.157 13.996 282.261 12.892C283.365 11.74 284.709 11.164 286.293 11.164C287.877 11.164 289.221 11.74 290.325 12.892C291.477 13.996 292.053 15.34 292.053 16.924C292.053 18.508 291.477 19.852 290.325 20.956C289.221 22.06 287.877 22.612 286.293 22.612ZM281.397 62.932C279.093 62.932 277.221 62.212 275.781 60.772C274.389 59.332 273.693 57.172 273.693 54.292C273.693 53.092 273.885 51.532 274.269 49.612L279.165 26.5H289.533L284.349 50.98C284.157 51.7 284.061 52.468 284.061 53.284C284.061 54.244 284.277 54.94 284.709 55.372C285.189 55.756 285.957 55.948 287.013 55.948C288.405 55.948 289.701 55.372 290.901 54.22C292.101 53.02 292.965 51.484 293.493 49.612H296.517C294.741 54.796 292.461 58.324 289.677 60.196C286.893 62.02 284.133 62.932 281.397 62.932Z" fill="#050F0A"/>
<path d="M300.592 62.932C298.288 62.932 296.416 62.212 294.976 60.772C293.584 59.332 292.888 57.172 292.888 54.292C292.888 53.092 293.08 51.532 293.464 49.612L301.168 13.54L311.824 12.1L303.544 50.98C303.352 51.7 303.256 52.468 303.256 53.284C303.256 54.244 303.472 54.94 303.904 55.372C304.384 55.756 305.152 55.948 306.208 55.948C307.6 55.948 308.896 55.372 310.096 54.22C311.296 53.02 312.16 51.484 312.688 49.612H315.712C313.936 54.796 311.656 58.324 308.872 60.196C306.088 62.02 303.328 62.932 300.592 62.932Z" fill="#050F0A"/>
<path d="M323.171 62.788C319.619 62.788 316.811 61.876 314.747 60.052C312.683 58.228 311.651 55.348 311.651 51.412C311.651 48.148 312.323 44.524 313.667 40.54C315.011 36.556 317.171 33.124 320.147 30.244C323.123 27.316 326.867 25.852 331.379 25.852C337.523 25.852 340.595 29.692 340.595 37.372V37.444C340.739 37.492 341.003 37.516 341.387 37.516C342.971 37.516 344.795 37.108 346.859 36.292C348.923 35.428 350.795 34.396 352.475 33.196L353.123 35.14C351.731 36.628 349.907 37.9 347.651 38.956C345.443 39.964 343.019 40.684 340.379 41.116C339.995 45.484 339.011 49.3 337.427 52.564C335.843 55.828 333.803 58.348 331.307 60.124C328.811 61.9 326.099 62.788 323.171 62.788ZM326.051 56.308C327.203 56.308 328.355 55.66 329.507 54.364C330.659 53.02 331.667 51.22 332.531 48.964C333.395 46.66 334.019 44.116 334.403 41.332C333.107 41.044 332.459 40.036 332.459 38.308C332.459 36.34 333.203 35.044 334.691 34.42C334.595 32.836 334.355 31.756 333.971 31.18C333.587 30.556 332.915 30.244 331.955 30.244C330.371 30.244 328.835 31.396 327.347 33.7C325.859 36.004 324.659 38.764 323.747 41.98C322.835 45.196 322.379 48.028 322.379 50.476C322.379 52.78 322.643 54.34 323.171 55.156C323.699 55.924 324.659 56.308 326.051 56.308Z" fill="#050F0A"/>
<path d="M349.196 26.5H359.564L358.628 30.964C360.26 29.524 361.724 28.42 363.02 27.652C364.364 26.884 365.804 26.5 367.34 26.5C368.876 26.5 370.076 27.028 370.94 28.084C371.852 29.14 372.308 30.412 372.308 31.9C372.308 33.292 371.852 34.516 370.94 35.572C370.028 36.628 368.756 37.156 367.124 37.156C366.068 37.156 365.348 36.916 364.964 36.436C364.628 35.908 364.364 35.164 364.172 34.204C364.028 33.58 363.884 33.124 363.74 32.836C363.596 32.548 363.332 32.404 362.948 32.404C361.94 32.404 361.076 32.62 360.356 33.052C359.684 33.436 358.796 34.132 357.692 35.14L351.932 62.5H341.564L349.196 26.5Z" fill="#050F0A"/>
<rect width="72" height="72" rx="16" fill="#40AD76"/>
<circle cx="36" cy="36" r="24" fill="#338A5E"/>
<g clip-path="url(#clip0_76_996)">
<path d="M30.8695 21.0155L29.7521 22.1329C27.2872 24.5974 23.2769 24.5977 20.812 22.1329C18.869 20.1899 18.4006 17.2406 19.6466 14.7944C20.0428 14.0167 19.7333 13.0651 18.9556 12.6689C18.178 12.2726 17.2263 12.5821 16.8301 13.36C14.9609 17.0299 15.663 21.4538 18.5772 24.368C22.2745 28.0653 28.2903 28.0651 31.9871 24.368L33.1045 23.2506C34.3099 22.0453 35.7267 21.1771 37.2364 20.6454C38.3412 19.2613 39.3609 17.9905 40.2651 16.8717C36.8465 17.0296 33.4744 18.4107 30.8695 21.0155Z" fill="#FFFFF4"/>
<path d="M57.2052 52.3536C54.7587 53.5992 51.8099 53.1306 49.867 51.1878C48.6731 49.9939 48.0156 48.4065 48.0156 46.7179C48.0156 45.0294 48.6731 43.4419 49.867 42.2479L50.9845 41.1304C54.5581 37.5569 55.8281 32.5393 54.796 27.9387C56.3175 26.6962 57.3459 25.8292 57.6893 25.4856C60.7702 22.4047 60.7702 17.3917 57.6893 14.3108C54.6084 11.2299 49.5953 11.2299 46.5144 14.3108C44.0056 16.8194 13.6259 55.7903 12.3339 57.448C11.8436 58.0771 11.8989 58.973 12.463 59.5369C12.7696 59.8436 13.1743 59.9999 13.5809 59.9999C13.9222 59.9999 14.2649 59.8898 14.552 59.666C15.8611 58.6458 40.4366 39.488 51.953 30.2383C52.1858 33.3424 51.1183 36.5267 48.7496 38.8954L47.6321 40.0129C45.8411 41.8039 44.8549 44.1851 44.8549 46.7179C44.8549 49.2507 45.8412 51.6319 47.6322 53.4228C49.4589 55.2496 51.8782 56.2072 54.3338 56.207C55.7954 56.2069 57.2703 55.8676 58.6395 55.1701C59.4173 54.7741 59.7267 53.8225 59.3306 53.0447C58.9345 52.2669 57.9827 51.9576 57.2052 52.3536ZM50.9845 21.0154L50.9844 21.0153L48.7494 23.2503L48.7495 23.2504C49.1289 23.6298 49.4742 24.0305 49.7868 24.448L48.7494 25.4853C48.4408 25.794 48.0363 25.9483 47.632 25.9483C47.2276 25.9483 46.8231 25.7941 46.5146 25.4853C45.8975 24.8683 45.8975 23.8676 46.5146 23.2503L50.9846 18.7804C51.6018 18.1633 52.6025 18.1633 53.2196 18.7804C53.8368 19.3975 53.8368 20.3982 53.2196 21.0154L52.0396 22.1954C51.7132 21.7876 51.3622 21.3931 50.9845 21.0154Z" fill="#FFFFF4"/>
</g>
<defs>
<clipPath id="clip0_76_996">
<rect width="48" height="48" fill="white" transform="translate(12 12)"/>
</clipPath>
</defs>
</svg>
