<svg width="801" height="857" viewBox="0 0 801 857" fill="none" xmlns="http://www.w3.org/2000/svg">
<path d="M398.729 1.45049C366.178 4.64169 332.625 22.8771 303.722 53.0567C292.872 64.3627 289.042 69.1951 281.11 81.1393C266.248 103.569 258.225 123.445 247.922 162.925C241.083 189.002 238.439 195.202 225.674 216.172C208.26 244.529 201.786 263.767 203.062 283.005C204.065 298.049 207.165 307.167 215.827 320.844C218.654 325.311 221.298 330.053 221.571 331.238C221.845 332.514 221.389 337.347 220.477 341.997C219.657 346.738 218.927 354.397 218.927 359.138C219.018 366.523 219.383 368.529 221.754 374.365C226.951 386.856 236.251 396.065 251.022 403.724C258.589 407.644 269.622 411.565 272.995 411.565C275.001 411.565 275.366 408.647 273.451 407.097C272.813 406.55 269.439 405.091 265.975 403.906C258.589 401.444 250.201 397.341 244.183 393.238C237.254 388.588 232.057 382.479 227.954 374.274C224.216 366.615 224.124 366.432 224.124 356.95C224.216 350.659 224.763 345.097 225.857 340.994C227.954 332.879 227.042 329.141 220.295 318.2C214.095 308.17 212.18 303.794 209.901 294.402C204.795 272.976 210.813 249.452 228.866 221.005C242.998 198.575 247.922 186.266 255.58 153.534C267.616 102.931 297.887 57.7979 338.096 30.9007C362.44 14.58 381.678 7.92406 406.479 7.01229C427.905 6.28288 440.123 9.20054 464.741 21.3271C475.226 26.5242 476.138 26.7977 482.611 26.7977C497.929 26.8889 514.432 32.4507 527.288 41.9331C540.874 51.8714 550.082 62.9038 558.197 78.5863C569.868 101.381 575.247 126.272 580.171 180.431C582.815 209.152 585.459 217.084 600.959 242.887C613.724 264.04 618.101 284.829 614.362 306.347C610.533 328.138 600.868 349.2 586.189 367.435C563.759 395.427 534.582 410.015 504.038 408.556C498.567 408.374 491.912 407.462 489.359 406.641L484.617 405.183L483.159 398.983C480.697 388.862 479.876 380.2 479.329 359.594L478.782 339.991L483.888 333.609C491.912 323.67 497.747 314.461 503.217 303.064C505.953 297.32 508.597 291.941 508.962 291.211C509.418 290.391 511.697 289.661 515.07 289.296C528.929 287.838 542.332 278.902 551.724 264.952C560.477 251.732 564.397 238.329 563.486 224.287C562.665 210.884 558.015 202.952 548.715 198.575C542.788 195.749 536.953 195.84 527.926 198.666C520.268 201.128 517.988 200.764 514.432 196.752C511.423 193.287 507.32 182.437 506.865 176.784C506.773 174.778 507.138 174.687 516.073 175.781C521.271 176.328 521.818 176.237 522.729 174.413C523.368 173.41 523.459 172.134 523.003 171.769C522.638 171.313 518.809 170.493 514.523 170.037C501.485 168.396 490.088 161.102 480.514 148.154C474.497 140.04 467.841 123.992 464.011 108.401C461.914 99.7394 458.905 81.1393 458.905 76.5804C458.905 71.8392 456.626 69.7421 454.894 72.8421C443.679 92.1717 428.452 105.757 407.482 115.239C398.729 119.251 397.087 120.984 399.914 123.263C400.734 123.992 403.105 123.354 408.758 120.801C425.899 113.142 437.479 104.389 449.97 89.8011L454.164 84.9687L455.167 90.257C461.002 121.348 467.02 138.49 476.776 152.257C481.608 159.096 489.541 166.481 496.014 170.128C498.659 171.587 500.847 172.955 500.847 172.955C500.938 173.046 501.485 176.419 502.215 180.431C503.765 188.911 508.779 199.761 512.7 203.134C516.894 206.599 520.906 207.055 527.562 204.502C535.677 201.402 543.791 201.584 548.897 204.867C551.085 206.234 553.821 209.152 555.28 211.614C557.741 215.808 557.833 216.446 557.833 227.843C557.741 238.511 557.468 240.334 555.188 246.352C548.715 263.585 537.5 276.076 523.641 281.638C521.362 282.458 516.529 283.461 512.791 283.826L506.044 284.373L501.212 295.041C494.009 311.27 487.991 320.57 475.864 334.429C461.185 351.206 436.932 365.885 414.32 371.629C407.664 373.362 404.017 373.635 389.611 373.726C374.658 373.726 371.922 373.453 365.54 371.629C348.581 366.706 334.905 358.682 322.596 346.373C296.975 320.844 285.669 284.92 285.669 229.667C285.669 190.916 289.498 163.381 296.884 148.154C304.178 133.11 312.475 127.548 343.11 117.519C371.284 108.128 394.078 98.007 409.487 87.8864C419.243 81.4128 435.199 66.6421 435.199 64.0891C435.199 59.9862 432.373 61.3538 423.62 69.6509C405.111 86.9746 386.055 96.8217 342.563 111.592C314.937 120.984 310.651 123.081 302.537 131.104C294.695 138.763 290.41 146.969 287.037 160.463C282.295 178.881 279.651 210.064 280.472 237.417C282.113 292.032 293.328 324.673 319.587 351.206C325.513 357.132 331.987 362.056 344.66 369.897L348.49 372.359L348.034 380.291C347.031 397.706 344.934 410.106 342.381 414.027C342.016 414.665 331.44 417.218 318.949 419.68C279.651 427.612 254.03 435.545 231.327 446.759C218.107 453.324 204.886 462.168 196.954 469.736C191.574 474.933 184.918 485.692 182.548 493.168L180.359 499.824L171.698 500.371C158.203 501.283 146.442 502.651 137.962 504.383L130.212 505.933L124.833 502.56C117.721 498.001 113.435 497.818 109.606 501.921C107.418 504.292 105.412 505.113 97.5706 506.936C47.7879 518.698 15.4201 536.113 5.39058 556.628C-1.72124 571.216 -0.535933 585.896 10.0406 614.252C22.623 648.169 37.029 668.867 57.5439 682.726C62.4674 686.008 67.0263 688.743 67.5733 688.743C68.1204 688.743 68.8498 689.837 69.2145 691.205C72.3146 705.611 76.4175 713.726 84.6235 722.114C91.9176 729.499 99.1206 734.605 109.697 739.894C118.359 744.179 131.944 749.467 136.503 750.379C138.327 750.653 139.786 751.017 139.786 751.108C139.786 751.2 138.965 757.856 137.962 765.879C134.224 796.15 132.491 814.203 132.491 822.227C132.583 831.527 133.768 842.65 135.318 847.209C136.23 849.944 136.594 850.218 138.783 849.671C140.059 849.306 141.244 848.941 141.427 848.85C141.518 848.668 140.971 846.753 140.15 844.565C139.147 841.83 138.509 836.359 138.236 827.15C137.78 813.656 138.783 799.432 142.612 768.979C143.524 761.229 144.344 754.3 144.344 753.661C144.344 752.75 144.983 752.567 146.806 753.023C161.668 756.761 183.642 757.947 198.048 755.85C209.354 754.117 211.998 753.206 211.268 751.291C210.448 749.103 208.624 748.92 197.501 750.47C177.533 753.114 154.739 750.47 132.036 742.994C104.227 733.785 86.7205 721.385 79.1528 705.52C71.7675 690.02 70.3998 669.231 76.2352 660.752C79.0617 656.558 80.3381 656.375 83.6205 659.84C86.2646 662.667 86.6294 663.761 87.6323 672.331C89.3647 687.284 94.8353 701.235 103.679 713.726C106.688 717.92 106.871 718.011 107.874 716.096C108.785 714.455 108.238 712.996 103.862 705.246C95.0177 689.655 90.3676 671.784 93.0118 663.578C94.7441 658.473 97.2971 655.92 100.762 655.92C103.041 655.92 104.591 656.922 107.874 660.296C112.432 665.037 113.162 666.952 115.532 681.449C117.356 692.937 120.547 702.329 126.656 714.638C132.309 725.852 133.768 727.949 136.321 727.949C138.874 727.949 138.327 726.126 132.583 715.002C129.574 709.349 126.291 702.42 125.288 699.685C120.456 686.464 118.45 672.149 120.547 666.587C121.641 663.761 125.106 660.478 127.021 660.478C132.036 660.478 141.153 671.693 144.253 681.814C148.994 697.223 157.656 716.461 163.036 723.755C164.403 725.579 167.139 725.123 167.139 723.026C167.139 722.296 164.677 717.008 161.668 711.264C155.195 698.955 148.903 681.996 148.903 676.799C148.903 674.793 149.542 671.967 150.271 670.508C151.456 668.228 152.277 667.773 155.012 667.773C159.571 667.773 163.583 672.24 169.783 684.184C180.451 704.882 186.924 711.173 201.695 715.549C207.348 717.191 221.48 717.464 230.963 716.096C234.154 715.641 236.98 715.367 237.072 715.549C237.892 716.279 244.548 761.776 246.372 779.009C249.198 804.994 248.469 833.259 244.639 842.833C242.725 847.665 243.18 850.127 246.007 850.127C247.83 850.127 251.022 841.647 252.116 833.533C253.392 823.959 252.48 787.032 250.657 773.082C247.283 746.914 246.189 739.438 244.548 728.861C243.545 722.57 242.542 716.826 242.269 716.005C241.904 714.729 243.636 713.908 250.748 711.538C301.078 695.126 336.819 654.552 349.949 599.025C356.878 569.757 354.872 557.995 340.466 543.772C328.613 532.01 308.737 522.71 275.001 513.227C251.751 506.571 228.501 502.651 202.333 500.736L186.195 499.642L186.742 496.816C189.477 482.957 205.98 466.362 230.051 453.233C242.451 446.486 267.798 437.277 288.404 432.08C304.269 428.068 304.816 428.068 304.816 431.715C304.816 435.636 308.919 447.398 312.657 454.327C322.413 472.198 342.837 486.239 368.458 492.804C388.881 498.001 417.785 497.636 440.67 491.801C460.729 486.695 478.144 476.939 493.006 462.715C501.485 454.509 506.956 447.124 511.332 437.824L514.615 431.077L540.782 437.186C569.594 443.933 597.586 450.953 606.339 453.598C611.536 455.239 612.083 455.603 614.362 460.162C617.371 465.998 624.757 476.665 633.692 487.971C641.807 498.366 647.368 509.307 648.645 517.33C649.192 520.795 649.374 528.728 649.101 536.478C648.736 543.772 648.28 555.26 648.007 562.007C647.095 586.351 643.265 638.778 642.354 639.599C641.989 639.964 634.33 642.061 625.304 644.34C616.277 646.619 602.418 650.358 594.577 652.637C586.736 654.917 580.171 656.831 579.897 656.831C578.803 656.831 577.253 650.54 575.156 637.684C573.241 625.375 569.23 593.919 569.23 590.454C569.23 589.725 568.409 589.36 567.224 589.543C565.218 589.816 565.127 590.181 565.309 597.11C565.4 601.122 565.947 607.505 566.403 611.243C566.95 614.981 568.044 623.005 568.865 629.022C570.962 644.978 574.153 660.387 576.25 664.581C577.253 666.587 578.347 669.231 578.621 670.508C579.715 674.884 582.906 703.149 582.45 704.426C581.994 705.885 577.436 745.729 573.789 780.376C572.786 789.859 570.962 806.362 569.594 817.029C566.95 839.459 566.95 845.112 569.686 845.112C571.965 845.112 571.691 847.3 578.803 779.465C581.903 750.197 584.821 724.12 585.55 720.473C586.371 715.823 586.006 714.729 589.745 734.788C595.671 766.7 600.048 782.109 607.98 798.612C621.292 826.603 645.089 847.574 670.892 854.047C699.157 861.25 723.592 854.594 737.634 835.994C748.301 821.862 755.231 795.876 756.963 763.053C758.057 742.447 756.416 705.793 752.952 674.611C752.222 668.046 750.581 652.911 749.304 640.875C748.028 628.84 745.749 609.51 744.29 598.022C737.087 542.039 735.901 524.807 738.272 513.41C739.731 506.389 743.104 497.089 749.578 482.227C753.681 472.836 758.513 457.062 762.069 441.198C766.355 421.959 768.816 415.577 783.587 385.944C801.458 350.02 803.19 344.732 798.996 337.894C797.446 335.432 796.717 334.976 793.708 334.976C790.881 334.976 789.331 335.706 786.049 338.532C782.037 342.088 770.731 356.494 762.069 369.168C759.607 372.632 757.875 374.729 758.149 373.726C758.422 372.724 760.154 366.797 761.978 360.506C766.993 343.365 770.458 329.688 772.099 320.661C773.74 311.088 773.922 297.867 772.372 292.761C770.822 287.655 766.81 283.917 762.89 283.917C753.043 283.917 746.022 294.402 736.448 323.67L731.069 339.991L729.975 320.388C727.422 273.614 725.325 264.77 716.937 264.77C714.384 264.77 713.016 265.499 710.737 267.688C703.807 274.982 700.889 287.382 699.613 315.373C698.61 337.712 697.425 352.026 695.601 362.603L694.507 369.168L691.954 364.153C683.839 348.653 672.442 339.262 660.133 337.985C639.983 335.888 617.371 358.591 606.065 392.144C601.598 405.365 602.236 427.794 607.615 443.203C609.712 449.403 609.712 449.312 607.889 448.583C604.333 447.215 575.247 439.648 558.744 435.727C508.597 424.056 499.023 420.865 493.097 414.3L491.273 412.294L494.464 413.024C496.197 413.48 503.4 413.844 510.42 413.753C520.997 413.662 524.644 413.297 532.029 411.291C561.297 403.541 589.289 379.197 606.156 346.647C614.636 330.235 618.83 316.194 620.38 299.235C622.204 278.446 618.009 262.035 605.245 239.696C589.106 211.522 587.465 206.052 584.73 174.049C579.989 118.066 571.691 87.5217 554.277 61.9009C544.338 47.2214 533.488 37.739 517.623 29.6242C508.506 24.9742 498.932 22.5124 485.894 21.4183C475.956 20.6889 475.408 20.5065 465.835 15.5829C448.694 6.73876 436.111 2.72697 421.067 1.45049C410.673 0.53872 408.211 0.53872 398.729 1.45049ZM720.219 274.252C723.41 283.279 726.966 340.629 725.325 354.762C724.322 363.697 718.942 382.388 714.566 392.235C713.381 394.971 712.378 398.162 712.378 399.438C712.378 402.174 715.022 403.268 716.572 401.171C718.578 398.435 725.69 378.103 730.157 362.329C742.375 319.294 749.851 299.782 756.599 292.761C767.54 281.729 772.099 298.323 765.807 326.132C759.334 354.306 751.31 379.927 744.563 393.877C739.366 404.818 738.546 408.83 741.554 408.83C742.831 408.83 744.107 407.28 746.022 403.541C752.587 390.503 784.225 346.282 789.787 342.27C793.069 339.991 794.164 339.991 795.349 342.27C797.081 345.553 794.528 352.209 780.305 380.565C772.646 395.883 765.26 411.474 763.893 415.212C762.616 418.95 759.516 430.256 757.054 440.286C751.857 461.895 749.578 469.007 742.466 485.418C736.266 500.007 733.987 507.119 732.437 516.692C730.887 525.992 731.434 534.016 736.448 574.772C738.728 593.099 742.01 621.363 743.743 637.684C745.566 654.005 747.39 670.964 747.937 675.523C751.31 705.885 751.949 716.917 751.949 743.905C751.949 774.085 751.31 781.015 746.66 801.712C740.46 828.974 728.79 843.38 707.819 849.58C701.619 851.403 685.025 851.494 676.819 849.762C656.03 845.294 637.157 832.53 623.115 813.656C613.177 800.253 604.059 778.37 599.318 756.488C589.653 711.446 582.177 666.405 584 663.031C584.456 662.028 588.377 660.296 594.121 658.564C605.701 655.008 641.533 645.981 642.08 646.437C643.083 647.349 635.424 730.594 632.142 754.208C631.504 758.95 631.504 761.411 632.233 762.779C633.236 764.603 633.236 764.603 634.968 762.961C636.245 761.685 636.883 758.95 637.612 752.567C638.068 747.826 639.345 735.882 640.348 726.126C647.733 655.008 653.66 565.837 653.477 526.904C653.477 506.571 652.018 503.38 631.412 475.845C622.112 463.536 613.998 447.489 610.624 434.815C607.524 423.144 607.068 406.824 609.621 398.618C611.353 392.874 612.539 391.871 621.748 388.771L626.489 387.13L626.58 395.883C626.671 409.741 629.407 420.227 634.877 427.703C640.074 434.815 648.918 436.547 655.574 431.715C660.042 428.524 662.321 425.333 665.877 417.674C676.545 394.971 669.98 365.521 655.118 369.168C651.745 369.988 632.598 377.556 627.492 380.2C622.477 382.662 613.906 386.035 613.906 385.488C613.906 384.577 618.101 376.918 622.659 369.624C631.777 354.853 646.73 343.182 656.486 343.182C662.96 343.182 669.98 346.465 676.454 352.573C686.666 362.056 693.139 375.732 691.863 385.032C691.407 388.497 691.589 389.591 692.683 389.956C694.872 390.868 695.783 388.771 698.154 376.644C701.436 360.506 702.986 346.556 704.081 325.311C704.628 315.373 705.266 303.611 705.539 299.326C705.995 290.117 708.731 280.543 712.56 274.526C716.025 269.055 718.487 268.964 720.219 274.252ZM474.406 372.359C476.047 395.518 478.782 407.097 484.435 414.209C488.356 419.133 497.109 424.786 505.132 427.612L509.965 429.253L505.862 436.821C494.738 457.792 476.685 472.836 451.155 482.501C436.476 488.154 420.337 490.889 402.558 490.889C379.49 490.889 366.361 488.063 348.581 479.31C337.64 473.93 335.543 472.471 328.887 465.907C318.584 455.603 311.472 442.565 309.922 430.986C309.284 426.427 307.551 427.156 327.61 423.509C335.452 422.142 342.655 420.5 343.84 419.862C348.308 417.491 350.861 408.1 352.411 388.497C353.505 374.638 353.596 374.091 355.419 374.456C356.422 374.729 360.525 375.824 364.537 376.918C375.022 379.744 395.173 380.474 407.664 378.377C428.27 374.912 450.244 364.426 467.567 349.838L473.038 345.188L473.22 352.209C473.403 356.038 473.858 365.065 474.406 372.359ZM663.142 378.741C664.966 382.115 665.421 384.394 665.695 391.597C666.333 405.821 662.23 418.039 654.48 425.15C646.821 432.171 640.348 429.436 635.515 417.036C631.048 405.73 629.862 391.871 632.871 386.035C634.239 383.209 635.607 382.388 644.907 378.559C658.036 373.179 660.042 373.271 663.142 378.741ZM127.568 510.766C143.524 522.254 164.221 542.404 171.242 553.163C174.433 558.178 175.345 557.995 183.186 550.519C191.574 542.586 196.133 540.125 203.427 539.486C209.354 538.939 212.363 540.033 218.745 545.231C220.842 546.963 223.121 548.331 223.942 548.331C225.036 548.331 225.31 549.334 225.31 552.342C225.31 558.542 226.495 560.001 231.419 559.728C236.524 559.545 239.442 557.448 234.61 557.448C231.51 557.448 228.227 555.351 228.227 553.345C228.227 552.707 230.324 552.342 234.245 552.251C240.901 552.16 242.269 551.248 241.448 547.419C240.263 542.131 234.883 540.581 228.774 543.772L225.219 545.504L220.295 541.036C213.274 534.563 206.345 533.104 196.407 536.113C193.762 536.842 191.392 537.389 191.209 537.116C190.571 536.478 194.765 533.013 200.236 529.822C207.439 525.445 216.374 523.348 225.766 523.895C234.063 524.351 237.254 525.627 242.907 530.733C247.101 534.563 248.651 537.298 249.563 542.222C250.383 546.598 253.301 548.057 256.036 545.504C261.233 540.763 272.722 539.578 280.198 542.951C285.76 545.504 287.219 546.963 288.86 552.069C290.319 556.354 290.319 556.628 288.495 558.907C286.49 561.46 286.034 563.375 287.31 564.195C287.766 564.469 290.501 562.828 293.51 560.639C300.531 555.351 308.646 553.254 315.484 554.987C320.681 556.354 322.778 557.631 326.334 561.916C328.431 564.469 328.978 566.019 328.978 569.392C328.978 574.772 326.972 577.051 321.319 578.328C314.754 579.696 312.475 580.79 308.554 584.346C305.272 587.263 304.543 587.628 301.898 586.99C300.257 586.625 297.887 586.351 296.61 586.534C293.693 586.716 281.292 591.093 278.648 592.825C276.095 594.375 276.095 594.193 278.192 589.178C282.842 578.328 282.204 564.925 276.734 558.998C274.089 556.172 267.16 553.801 261.507 553.801C246.463 553.801 227.863 567.569 221.389 583.525C220.113 586.534 219.018 588.175 218.654 587.537C216.83 584.619 206.618 578.328 200.965 576.595C193.398 574.316 187.289 575.137 180.542 579.331C178.08 580.881 175.801 582.066 175.345 582.066C173.977 582.066 176.074 576.778 178.445 574.134C179.721 572.766 180.815 571.307 180.815 570.943C180.815 570.031 188.474 566.566 190.662 566.566C191.757 566.566 194.036 567.751 195.677 569.301C197.41 570.76 199.507 572.037 200.236 572.037C201.512 572.037 201.421 571.49 199.78 568.572C197.41 564.56 196.862 564.104 192.759 562.919C190.207 562.281 188.748 562.463 185.465 563.922C183.186 564.925 180.359 566.566 179.265 567.66L177.259 569.484L175.345 565.745C172.245 559.637 163.036 553.892 147.536 548.331C143.068 546.781 135.956 544.684 131.762 543.772C123.556 541.948 122.827 541.401 117.538 532.83C113.982 526.995 111.521 519.519 111.521 514.23C111.521 509.672 114.438 504.566 116.991 504.566C117.994 504.566 122.735 507.392 127.568 510.766ZM204.065 506.389C232.239 508.486 259.775 513.683 285.213 521.889C327.975 535.657 345.025 548.239 348.581 568.572C351.225 583.798 342.381 597.749 321.319 611.607C296.701 627.837 268.984 636.408 228.227 640.419C217.195 641.514 166.409 641.514 156.197 640.328C152.459 639.964 144.253 639.143 137.962 638.596C96.5677 634.858 63.6527 626.925 39.9467 615.072C22.8966 606.593 14.7818 600.028 9.22001 590.363C6.39353 585.531 6.21117 584.801 6.21117 576.14C6.21117 567.842 6.4847 566.475 9.03766 561.095C15.6024 547.145 31.8319 534.928 56.3586 525.263C68.2116 520.613 101.035 510.948 104.956 510.948C106.415 510.948 106.779 511.86 107.235 517.239C107.509 520.704 108.421 524.807 109.241 526.357C109.971 527.907 110.427 529.183 110.244 529.183C109.971 529.183 107.691 528.363 105.138 527.36C101.947 526.083 98.3912 525.536 93.3765 525.536C83.6205 525.536 76.9646 528.819 68.6675 537.754C55.3556 552.069 56.3586 551.248 39.0349 559.272C25.9966 565.198 22.1672 570.122 22.1672 580.79C22.1672 594.284 32.5613 605.499 47.6967 608.507C55.7203 610.149 61.6468 612.246 63.9263 614.252C65.4763 615.71 66.2057 615.893 67.0263 615.072C67.8469 614.252 67.2998 612.884 65.0204 609.237C63.3792 606.593 59.3674 599.846 56.085 594.375C48.882 582.066 46.4203 578.784 42.7732 576.504C39.3085 574.407 33.1084 574.225 29.4613 576.14C26.3613 577.69 25.9966 576.96 28.0025 573.131C30.2819 568.754 33.5643 566.566 44.4144 562.007C56.5409 556.992 63.1968 552.798 65.5675 548.786C69.0322 542.951 77.7852 534.928 83.4382 532.375C88.3617 530.186 89.8206 529.913 95.2 530.369C101.947 530.916 110.609 534.654 115.259 539.122C118.268 542.039 118.541 542.86 116.444 542.86C109.606 542.86 100.306 549.881 96.9324 557.539C93.65 565.29 93.5588 573.313 96.8412 585.896C99.7589 597.293 99.6677 600.484 96.2941 604.131C93.5588 607.231 87.6323 610.149 81.5234 611.607C74.6852 613.157 74.2293 613.522 76.2352 615.619C77.694 617.078 78.1499 617.078 83.7117 615.619C91.0059 613.705 98.7559 608.872 101.4 604.587C103.953 600.393 103.862 595.469 101.035 584.71C96.9324 568.937 98.3912 559.454 106.05 552.525C110.518 548.513 115.715 547.054 123.83 547.692C131.762 548.148 147.9 552.798 157.839 557.448C166.592 561.551 174.433 568.754 174.433 572.675C174.433 574.863 174.342 574.954 172.792 573.587C169.874 570.943 164.403 569.119 161.303 569.848C159.753 570.122 156.015 571.672 153.006 573.131C148.812 575.137 146.806 575.684 144.527 575.228C141.7 574.681 141.518 574.863 141.791 576.778C142.065 578.601 142.521 578.875 145.712 578.784C147.718 578.693 151.73 577.598 154.556 576.231C160.209 573.678 165.862 573.131 168.415 575.045C169.327 575.684 170.603 578.51 171.151 581.246C172.245 585.804 172.153 586.625 170.148 591.366C168.962 594.284 168.05 597.657 168.05 598.843C168.05 600.119 167.321 601.669 166.409 602.307C163.948 604.131 160.574 609.328 161.212 610.331C161.486 610.787 162.945 609.784 164.495 608.052C167.503 604.678 168.05 604.678 173.703 608.234C180.359 612.337 186.924 610.331 194.583 601.943C200.236 595.651 202.698 595.196 202.698 600.484C202.698 603.037 201.877 604.313 197.501 608.234C191.757 613.34 191.483 615.619 197.045 611.972C203.427 607.687 206.345 604.131 206.345 600.484C206.345 597.019 203.518 593.007 200.965 593.007C198.504 593.007 193.58 596.563 191.757 599.663C189.659 603.128 184.006 606.684 180.451 606.684C177.351 606.684 171.151 603.584 170.421 601.669C169.509 599.207 174.159 590.454 178.901 585.804C188.292 576.687 200.145 577.416 212.91 587.901C217.104 591.275 218.38 592.916 219.11 596.016C219.93 599.481 221.389 604.404 222.483 607.322C222.848 608.143 222.027 608.507 220.204 608.507C218.289 608.507 216.921 609.237 216.01 610.513C211.36 617.169 218.654 624.919 229.504 624.919C234.701 624.919 240.719 623.187 249.38 619.266L257.313 615.71L262.875 617.169C267.981 618.537 271.81 620.269 276.916 623.552C278.648 624.737 279.195 624.737 280.016 623.734C282.387 620.908 275.184 616.075 265.428 613.887C259.228 612.61 259.319 612.337 267.981 606.137C272.448 602.946 274.363 602.125 277.372 602.125C281.566 602.125 286.398 604.222 288.222 606.775C289.681 608.872 290.775 608.963 291.504 607.049C292.325 604.86 286.672 599.663 282.66 598.934C280.837 598.569 279.287 597.931 279.287 597.566C279.287 595.834 293.054 591.184 298.343 591.184C302.172 591.184 302.628 591.457 303.904 594.193C305.637 597.931 308.007 598.113 308.007 594.375C308.007 590.454 310.651 587.081 315.393 584.893C320.772 582.34 322.231 582.431 325.149 585.804C328.066 589.178 329.525 588.54 329.252 583.981C329.16 581.61 329.799 579.604 331.349 577.416C335.543 571.581 332.99 559.728 326.425 554.166C320.316 548.969 307.643 547.966 298.707 551.978C293.601 554.257 293.875 554.257 293.875 551.704C293.875 549.151 289.772 543.133 286.125 540.216C279.834 535.292 267.798 534.38 259.045 538.119L254.851 540.033L252.389 535.11C248.013 526.175 240.08 520.886 228.136 519.063C216.739 517.239 204.612 520.43 194.218 527.998L189.933 531.189L184.371 525.992C178.627 520.704 171.789 515.416 164.039 510.31C161.121 508.395 160.027 507.21 160.848 506.936C165.042 505.477 187.106 505.204 204.065 506.389ZM151.912 509.945C159.571 512.589 171.151 520.613 180.998 530.186L189.933 538.757L186.833 540.854C185.101 542.039 182.092 544.775 179.995 546.963C176.348 550.884 174.433 551.978 174.433 550.245C174.433 547.054 152.733 523.713 141.336 514.777C138.509 512.498 136.23 510.492 136.412 510.401C136.594 510.219 138.965 509.672 141.7 509.216C144.436 508.76 146.624 508.395 146.715 508.304C146.715 508.304 149.086 509.033 151.912 509.945ZM236.889 547.419C236.889 548.969 233.516 549.698 231.145 548.786C229.777 548.239 229.777 548.057 231.419 546.872C233.607 545.231 236.889 545.595 236.889 547.419ZM270.534 560.092C275.731 563.01 277.007 565.837 277.007 574.59C277.007 581.884 276.734 583.069 273.542 589.634C267.342 602.307 253.301 614.708 240.08 619.084C232.969 621.455 224.489 621.363 221.207 618.902C217.468 616.075 217.468 613.705 221.298 610.787C224.033 608.69 224.854 608.507 225.948 609.419C226.86 610.24 229.048 610.422 232.604 610.149C244.913 608.963 262.783 595.378 265.975 584.893C267.069 581.063 267.16 579.148 266.431 575.775C265.336 570.669 262.966 568.025 257.678 566.019C254.03 564.56 253.483 564.56 249.745 566.019C245.095 567.751 241.539 571.034 245.551 569.848C246.827 569.484 250.11 568.937 252.936 568.663C257.951 568.207 258.042 568.207 260.96 571.672C263.604 574.863 263.878 575.684 263.513 579.969C262.875 588.996 253.21 599.481 240.992 604.496C230.871 608.599 225.583 607.322 223.669 600.393C222.027 594.284 222.574 589.087 225.583 583.069C234.792 564.742 257.86 552.889 270.534 560.092ZM40.6761 580.425C43.1379 581.701 43.8673 582.613 51.9821 595.925C59.2762 607.96 59.5498 607.231 48.6085 604.222C38.2143 601.396 31.7408 596.563 28.6407 589.36C26.4525 584.254 26.9995 581.701 30.6466 580.243C33.5643 579.057 38.3967 579.148 40.6761 580.425ZM341.105 612.063C333.993 632.761 329.616 641.24 317.854 657.014C300.257 680.629 277.554 696.949 249.016 706.34C231.874 712.085 209.718 713.088 198.595 708.802C190.115 705.52 181.818 696.585 174.889 683.364C171.88 677.62 167.686 670.964 165.498 668.593C158.933 661.208 152.186 660.57 146.989 666.678C145.074 668.958 143.98 669.687 143.706 668.867C143.433 668.137 141.974 666.131 140.333 664.308C132.583 655.464 125.471 653.458 120.547 658.746C119.088 660.296 117.903 661.937 117.903 662.393C117.903 664.125 116.444 663.123 114.256 659.84C111.247 655.464 104.774 651.361 100.853 651.361C97.753 651.361 92.3735 653.549 92.3735 654.825C92.3735 655.19 91.7353 656.193 91.097 657.105C89.9117 658.564 89.6382 658.473 86.6294 655.464C82.6176 651.452 78.3322 651.178 74.3205 654.552C70.3087 657.925 68.5763 663.305 68.0292 673.881L67.4822 683.182L61.0086 678.714C54.9909 674.52 43.4114 663.578 38.3055 657.287C34.0202 651.908 28.4584 643.064 24.9025 636.134C21.3466 629.022 10.3141 603.219 10.3141 601.943C10.3141 601.487 11.9553 602.854 14.0524 604.769C26.9995 617.443 60.2792 631.484 91.6441 637.593C123.556 643.793 160.665 647.258 194.948 647.167C230.324 647.167 260.595 642.972 287.037 634.402C304.634 628.749 329.069 614.434 339.737 603.675C341.834 601.487 343.84 600.21 344.205 600.666C344.478 601.122 343.11 606.228 341.105 612.063Z" fill="#050F0A"/>
<path d="M696.331 453.233C693.231 458.157 689.857 463.901 688.763 465.907C686.392 470.739 683.201 482.227 683.201 486.057C683.201 490.433 684.751 493.807 686.666 493.442C687.942 493.169 688.307 491.801 688.854 485.327C689.492 476.301 692.501 468.824 700.434 456.516C702.987 452.504 705.084 448.583 705.084 447.945C705.084 446.577 703.351 444.389 702.348 444.389C702.075 444.389 699.34 448.401 696.331 453.233Z" fill="#050F0A"/>
<path d="M83.9857 545.869C76.8739 549.151 72.8621 557.175 76.5091 561.187C77.8768 562.646 77.6944 562.828 74.6856 563.648C65.9326 566.11 61.3737 573.404 62.1032 583.981C62.2855 586.716 66.8444 592.096 69.0326 592.096C71.5856 592.096 75.0503 587.354 75.0503 583.707C75.0503 579.24 74.3209 577.507 72.2238 577.507C70.765 577.507 70.6738 577.781 71.4944 579.604C72.2238 581.246 72.1326 582.613 70.9473 585.349L69.4885 588.905L67.665 586.716C64.6561 582.978 65.9326 574.681 70.3091 570.851C71.312 569.94 74.9591 568.207 78.3327 567.022C85.171 564.651 86.2651 562.919 81.7062 561.551C74.9591 559.637 79.7003 551.157 88.7269 548.878C94.8357 547.419 95.5652 545.231 90.0945 544.957C88.0886 544.866 85.3533 545.322 83.9857 545.869Z" fill="#050F0A"/>
<path d="M117.265 560.73C103.406 565.654 104.135 584.892 118.177 586.351C123.556 586.898 128.115 584.345 129.209 580.334C129.938 577.598 129.847 577.051 128.024 575.592C125.38 573.404 124.012 574.225 124.741 577.507C125.197 579.513 124.832 580.334 123.191 581.519C120.182 583.707 117.538 583.342 114.347 580.334C111.065 577.325 110.609 573.404 112.979 569.301C117.538 561.642 130.485 562.098 135.044 570.213C136.868 573.495 138.509 573.222 138.235 569.757C137.962 566.566 134.862 563.192 130.212 561.004C125.835 558.998 122.462 558.907 117.265 560.73Z" fill="#050F0A"/>
<path d="M142.065 562.007C141.517 562.827 145.62 570.669 146.988 571.489C147.353 571.763 149.45 570.76 151.729 569.21C153.918 567.751 157.291 566.11 159.206 565.563C161.212 565.016 162.579 564.195 162.306 563.557C161.668 561.642 159.023 561.825 153.826 564.195C147.353 567.204 146.806 567.204 145.529 563.83C144.526 561.095 143.067 560.366 142.065 562.007Z" fill="#050F0A"/>
<path d="M150.089 589.999C146.807 590.454 146.807 590.454 147.536 592.278C147.901 593.281 149.268 593.463 153.098 593.007C155.833 592.734 158.295 592.734 158.568 593.19C159.298 594.375 160.757 594.01 160.757 592.552C160.757 591.822 159.936 590.819 159.024 590.272C157.201 589.36 155.742 589.36 150.089 589.999Z" fill="#050F0A"/>
<path d="M163.582 596.107C162.853 597.293 160.665 599.572 158.568 601.031C148.721 608.052 141.791 609.419 135.773 605.316C133.95 604.04 131.032 602.034 129.3 600.849C124.103 597.293 119.635 596.928 113.982 599.754C106.05 603.584 95.6555 616.713 100.488 616.713C100.944 616.713 103.679 614.343 106.688 611.516C109.606 608.69 113.161 605.407 114.62 604.222C118.267 601.396 123.1 601.487 127.112 604.404C136.047 610.878 139.147 612.246 143.615 611.79C153.188 610.787 167.959 599.663 165.497 595.287C164.859 594.101 164.585 594.193 163.582 596.107Z" fill="#050F0A"/>
<path d="M134.68 620.452C130.212 622.184 126.109 625.102 126.109 626.652C126.109 628.475 129.209 628.475 131.671 626.743C135.865 623.643 142.977 622.002 148.265 622.64C153.371 623.369 162.489 626.196 166.501 628.202C169.327 629.752 170.786 629.205 170.786 626.834C170.786 625.193 168.324 623.643 163.036 622.002C150.271 617.99 142.157 617.534 134.68 620.452Z" fill="#050F0A"/>
<path d="M236.434 577.234C235.157 579.057 233.79 581.154 233.243 581.884C232.787 582.704 231.602 584.163 230.69 585.166C229.596 586.534 229.413 587.263 230.143 587.901C230.872 588.631 231.328 588.631 231.602 587.81C232.605 585.075 237.619 578.419 239.078 577.963C241.722 577.142 243.819 578.419 244.366 581.337C244.64 582.795 245.369 583.798 245.916 583.616C247.102 583.16 246.737 579.422 245.278 577.689C244.458 576.687 239.807 573.86 238.987 573.86C238.805 573.86 237.71 575.41 236.434 577.234Z" fill="#050F0A"/>
<path d="M232.786 589.816C232.057 590.637 232.057 591.184 232.604 591.184C233.698 591.184 234.974 589.451 234.336 588.813C234.154 588.631 233.424 588.995 232.786 589.816Z" fill="#050F0A"/>
<path d="M244.184 590.272C244.457 590.728 245.095 591.184 245.642 591.184C246.098 591.184 246.463 590.728 246.463 590.272C246.463 589.725 245.825 589.36 245.004 589.36C244.275 589.36 243.91 589.725 244.184 590.272Z" fill="#050F0A"/>
<path d="M317.49 156.451C312.748 157.728 305.728 163.472 303.084 168.304C300.895 172.225 300.804 172.681 302.172 174.048C304.087 175.963 306.184 174.96 307.551 171.678C309.01 168.213 315.028 163.016 319.222 161.648C321.046 161.101 325.422 160.737 329.434 161.01C335.36 161.375 337.366 161.922 342.472 164.748C345.755 166.572 348.855 168.122 349.493 168.122C350.496 168.122 353.14 165.934 353.14 165.113C353.14 163.928 343.384 158.639 338.46 157.089C332.534 155.266 323.051 154.901 317.49 156.451Z" fill="#050F0A"/>
<path d="M428.999 157.09C421.432 159.734 414.502 167.484 417.055 170.493C418.696 172.499 419.973 172.043 422.343 168.487C425.99 163.199 430.64 161.375 440.214 161.284C446.688 161.284 449.332 161.649 452.614 163.199C457.994 165.752 464.011 171.131 466.291 175.508C468.388 179.793 469.117 180.249 471.214 178.699C474.679 176.237 469.664 167.849 460.911 161.375C452.796 155.449 439.12 153.625 428.999 157.09Z" fill="#050F0A"/>
<path d="M327.884 202.405C324.784 203.955 321.229 209.881 321.229 213.528C321.229 216.537 323.417 221.187 325.97 223.558C328.796 226.111 335.361 226.476 338.826 224.287C342.017 222.19 344.023 217.54 344.023 212.343C344.023 208.514 343.567 207.602 340.467 204.502C336.455 200.49 332.99 199.943 327.884 202.405Z" fill="#050F0A"/>
<path d="M431.643 206.964C426.902 210.337 425.626 218.726 429.09 223.832C434.014 231.126 442.858 231.035 446.596 223.74C448.329 220.367 448.329 214.349 446.596 210.976C444.043 205.961 436.111 203.864 431.643 206.964Z" fill="#050F0A"/>
<path d="M379.034 214.44C378.487 214.805 377.211 216.993 376.116 219.273C375.113 221.734 370.737 227.387 365.996 232.402C353.14 246.17 350.769 252.917 355.328 262.673C357.972 268.144 362.805 271.517 370.828 273.158C375.205 274.161 376.208 274.07 376.937 272.976C378.578 270.332 377.393 268.873 373.108 268.326C365.722 267.232 361.71 264.314 359.066 258.114C356.696 252.552 358.337 248.905 367.363 239.058C379.125 226.385 383.137 219.637 381.769 215.352C381.222 213.62 380.584 213.346 379.034 214.44Z" fill="#050F0A"/>
<path d="M534.127 227.205C525.465 231.399 516.985 241.702 519.083 245.623C519.63 246.626 520.45 247.446 520.906 247.446C521.362 247.446 523.55 244.893 525.83 241.702C530.389 235.32 533.58 233.131 541.421 231.034C546.253 229.758 546.892 229.393 546.892 227.387C546.892 223.923 541.239 223.831 534.127 227.205Z" fill="#050F0A"/>
<path d="M427.45 289.114C419.426 291.941 402.194 295.679 390.979 297.138C382.591 298.232 374.476 298.597 363.17 298.414L347.214 298.05L347.487 301.241C347.67 302.973 349.22 307.441 350.952 311.088C354.69 319.294 362.896 327.865 370.92 331.785C376.026 334.338 377.12 334.521 386.42 334.521C395.994 334.521 396.814 334.338 402.832 331.42C416.235 324.856 429.547 307.167 432.829 291.576C433.65 287.929 432.373 287.382 427.45 289.114ZM422.344 303.976C413.317 320.935 401.008 329.506 385.873 329.506C372.105 329.506 360.708 321.117 354.599 306.711L353.323 303.52L368.002 303.794C378.214 304.067 385.964 303.611 393.258 302.609C403.652 301.15 421.614 297.138 424.258 295.679C426.811 294.311 426.264 296.591 422.344 303.976Z" fill="#050F0A"/>
</svg>
