<svg xmlns="http://www.w3.org/2000/svg" version="1.1" xmlns:xlink="http://www.w3.org/1999/xlink" xmlns:svgjs="http://svgjs.dev/svgjs" width="72" height="72"><svg width="72" height="72" viewBox="0 0 72 72" fill="none" xmlns="http://www.w3.org/2000/svg">
<rect width="72" height="72" rx="16" fill="#40AD76"></rect>
<circle cx="36" cy="36" r="24" fill="#338A5E"></circle>
<g clip-path="url(#clip0_76_985)">
<path d="M30.8695 21.0155L29.7521 22.1329C27.2872 24.5974 23.2769 24.5977 20.812 22.1329C18.869 20.1899 18.4006 17.2406 19.6466 14.7944C20.0428 14.0167 19.7333 13.0651 18.9556 12.6689C18.178 12.2726 17.2263 12.5821 16.8301 13.36C14.9609 17.0299 15.663 21.4538 18.5772 24.368C22.2745 28.0653 28.2903 28.0651 31.9871 24.368L33.1045 23.2506C34.3099 22.0453 35.7267 21.1771 37.2364 20.6454C38.3412 19.2613 39.3609 17.9905 40.2651 16.8717C36.8465 17.0296 33.4744 18.4107 30.8695 21.0155Z" fill="#FFFFF4"></path>
<path d="M57.2052 52.3536C54.7587 53.5992 51.8099 53.1306 49.867 51.1878C48.6731 49.9939 48.0156 48.4065 48.0156 46.7179C48.0156 45.0294 48.6731 43.4419 49.867 42.2479L50.9845 41.1304C54.5581 37.5569 55.8281 32.5393 54.796 27.9387C56.3175 26.6962 57.3459 25.8292 57.6893 25.4856C60.7702 22.4047 60.7702 17.3917 57.6893 14.3108C54.6084 11.2299 49.5953 11.2299 46.5144 14.3108C44.0056 16.8194 13.6259 55.7903 12.3339 57.448C11.8436 58.0771 11.8989 58.973 12.463 59.5369C12.7696 59.8436 13.1743 59.9999 13.5809 59.9999C13.9222 59.9999 14.2649 59.8898 14.552 59.666C15.8611 58.6458 40.4366 39.488 51.953 30.2383C52.1858 33.3424 51.1183 36.5267 48.7496 38.8954L47.6321 40.0129C45.8411 41.8039 44.8549 44.1851 44.8549 46.7179C44.8549 49.2507 45.8412 51.6319 47.6322 53.4228C49.4589 55.2496 51.8782 56.2072 54.3338 56.207C55.7954 56.2069 57.2703 55.8676 58.6395 55.1701C59.4173 54.7741 59.7267 53.8225 59.3306 53.0447C58.9345 52.2669 57.9827 51.9576 57.2052 52.3536ZM50.9845 21.0154L50.9844 21.0153L48.7494 23.2503L48.7495 23.2504C49.1289 23.6298 49.4742 24.0305 49.7868 24.448L48.7494 25.4853C48.4408 25.794 48.0363 25.9483 47.632 25.9483C47.2276 25.9483 46.8231 25.7941 46.5146 25.4853C45.8975 24.8683 45.8975 23.8676 46.5146 23.2503L50.9846 18.7804C51.6018 18.1633 52.6025 18.1633 53.2196 18.7804C53.8368 19.3975 53.8368 20.3982 53.2196 21.0154L52.0396 22.1954C51.7132 21.7876 51.3622 21.3931 50.9845 21.0154Z" fill="#FFFFF4"></path>
</g>
<defs>
<clipPath id="SvgjsClipPath1004">
<rect width="48" height="48" fill="white" transform="translate(12 12)"></rect>
</clipPath>
</defs>
</svg><style>@media (prefers-color-scheme: light) { :root { filter: none; } }
@media (prefers-color-scheme: dark) { :root { filter: none; } }
</style></svg>